<svg id="maplibre-logo" width="141" height="30" viewBox="0 0 141 30" fill="none" xmlns="http://www.w3.org/2000/svg">
<path d="M29.5898 13.807L28.3205 10.9372L27.741 13.807L25.8646 23.2717H22.8017L26.996 2.99011H27.3271L32.9011 13.9449L34.5567 17.6149L36.2124 13.9449L41.676 2.99011H41.9795L46.3394 23.2717H43.304L41.2621 13.807L40.655 10.9372L39.5513 13.807L34.6395 23.2717H34.474L29.5898 13.807Z" fill="white"/>
<path d="M54.4667 23.5476C53.3261 23.5476 52.2684 23.2809 51.2934 22.7474C50.3368 22.1955 49.5641 21.4229 48.9755 20.4295C48.4052 19.4177 48.1201 18.2404 48.1201 16.8975C48.1201 15.573 48.3684 14.414 48.8651 13.4206C49.3802 12.4273 50.1068 11.6546 51.045 11.1027C51.9832 10.5509 53.087 10.2749 54.3563 10.2749C55.0921 10.2749 55.782 10.4037 56.4258 10.6612C57.0697 10.9188 57.6124 11.2407 58.0539 11.627C58.4954 11.995 58.7897 12.3629 58.9369 12.7308L58.9921 10.6061H61.8343V23.2717H59.0197L58.9645 21.0366C58.6518 21.6988 58.0815 22.2875 57.2537 22.8026C56.4258 23.2993 55.4968 23.5476 54.4667 23.5476ZM54.9634 21.0642C56.0119 21.0642 56.8949 20.7055 57.6124 19.988C58.3298 19.2522 58.6886 18.2956 58.6886 17.1182V16.9251C58.6886 16.1341 58.523 15.4258 58.1919 14.8003C57.8607 14.1749 57.41 13.6874 56.8398 13.3379C56.2695 12.9883 55.644 12.8136 54.9634 12.8136C53.786 12.8136 52.8754 13.1999 52.2316 13.9725C51.5877 14.7268 51.2658 15.7109 51.2658 16.9251C51.2658 18.1576 51.5785 19.1602 52.204 19.9328C52.8478 20.6871 53.7676 21.0642 54.9634 21.0642Z" fill="white"/>
<path d="M65.8971 10.6061H68.7668V12.9515C69.7786 11.1671 71.3607 10.2749 73.513 10.2749C75.2974 10.2749 76.7415 10.8452 77.8453 11.9858C78.949 13.1079 79.5009 14.736 79.5009 16.8699C79.5009 18.1944 79.225 19.3625 78.6731 20.3743C78.1396 21.3861 77.4037 22.1679 76.4656 22.7198C75.5458 23.2717 74.5156 23.5476 73.375 23.5476C72.3081 23.5476 71.3791 23.3637 70.588 22.9958C69.8154 22.6094 69.2083 22.0668 68.7668 21.3677L68.7944 29.977H65.8971V10.6061ZM72.6852 21.0366C73.8809 21.0366 74.8007 20.6595 75.4446 19.9052C76.0884 19.1326 76.4104 18.1484 76.4104 16.9527C76.4104 15.7017 76.0884 14.7084 75.4446 13.9725C74.8191 13.2183 73.8993 12.8412 72.6852 12.8412C72.0229 12.8412 71.3975 13.0067 70.8088 13.3379C70.2385 13.6506 69.7786 14.1105 69.4291 14.7176C69.098 15.3062 68.9324 15.9961 68.9324 16.7871V16.9803C68.9324 17.7713 69.098 18.4795 69.4291 19.105C69.7786 19.7121 70.2385 20.1904 70.8088 20.5399C71.3791 20.871 72.0045 21.0366 72.6852 21.0366Z" fill="white"/>
<path d="M82.7358 2.99011H85.854V20.5123H91.6763V23.2717H82.7358V2.99011Z" fill="#95BEFA"/>
<path d="M94.6741 10.6061H97.7647V23.2717H94.6741V10.6061ZM96.1918 8.23297C95.6215 8.23297 95.1432 8.03981 94.7569 7.6535C94.3706 7.26718 94.1774 6.78889 94.1774 6.21861C94.1774 5.70352 94.3706 5.26202 94.7569 4.8941C95.1432 4.52618 95.6215 4.34222 96.1918 4.34222C96.7437 4.34222 97.2128 4.52618 97.5991 4.8941C97.9854 5.26202 98.1786 5.70352 98.1786 6.21861C98.1786 6.78889 97.9854 7.26718 97.5991 7.6535C97.2312 8.03981 96.7621 8.23297 96.1918 8.23297Z" fill="#95BEFA"/>
<path d="M109.396 23.5476C108.366 23.5476 107.437 23.2993 106.609 22.8026C105.8 22.2875 105.239 21.6988 104.926 21.0366L104.871 23.2717H102.001V2.99011H104.926V10.7992L104.788 12.9515C105.101 12.2157 105.708 11.5902 106.609 11.0752C107.529 10.5417 108.523 10.2749 109.59 10.2749C110.84 10.2749 111.926 10.5601 112.846 11.1303C113.784 11.6822 114.501 12.4641 114.998 13.4758C115.495 14.4692 115.743 15.6282 115.743 16.9527C115.743 18.2956 115.449 19.4637 114.86 20.4571C114.29 21.4505 113.517 22.2139 112.542 22.7474C111.586 23.2809 110.537 23.5476 109.396 23.5476ZM108.9 21.0642C110.095 21.0642 111.015 20.6871 111.659 19.9328C112.303 19.1602 112.625 18.1668 112.625 16.9527C112.625 15.7201 112.303 14.7268 111.659 13.9725C111.034 13.1999 110.114 12.8136 108.9 12.8136C107.851 12.8136 106.968 13.1815 106.251 13.9173C105.533 14.6348 105.174 15.5822 105.174 16.7595V16.9527C105.174 17.7437 105.34 18.4519 105.671 19.0774C106.021 19.7029 106.471 20.1904 107.023 20.5399C107.594 20.8894 108.219 21.0642 108.9 21.0642Z" fill="#95BEFA"/>
<path d="M118.839 10.6061H121.819V13.0895C122.113 12.2433 122.591 11.5626 123.254 11.0476C123.916 10.5325 124.67 10.2749 125.516 10.2749C126.105 10.2749 126.51 10.3301 126.731 10.4405L126.317 13.4482C126.151 13.3379 125.792 13.2827 125.241 13.2827C124.376 13.2827 123.585 13.5586 122.867 14.1105C122.168 14.6624 121.819 15.5454 121.819 16.7595V23.2717H118.839V10.6061Z" fill="#95BEFA"/>
<path d="M134.826 23.5476C133.318 23.5476 132.057 23.2533 131.046 22.6646C130.034 22.0576 129.289 21.2573 128.81 20.264C128.332 19.2522 128.093 18.1484 128.093 16.9527C128.093 15.6098 128.369 14.4324 128.921 13.4206C129.491 12.4089 130.273 11.6362 131.266 11.1027C132.26 10.5509 133.382 10.2749 134.633 10.2749C136.583 10.2749 138.027 10.8176 138.965 11.903C139.922 12.9699 140.4 14.4784 140.4 16.4284C140.4 16.9251 140.372 17.4402 140.317 17.9737H131.211C131.414 19.0958 131.809 19.9052 132.398 20.4019C133.005 20.8986 133.842 21.147 134.909 21.147C135.792 21.147 136.518 21.0734 137.089 20.9262C137.659 20.779 138.183 20.5767 138.662 20.3191L139.572 22.4439C139.112 22.7382 138.487 22.9958 137.696 23.2165C136.905 23.4373 135.948 23.5476 134.826 23.5476ZM137.503 15.9041C137.521 14.7635 137.273 13.9633 136.758 13.5034C136.242 13.0251 135.507 12.786 134.55 12.786C132.618 12.786 131.505 13.8254 131.211 15.9041H137.503Z" fill="#95BEFA"/>
<path fill-rule="evenodd" clip-rule="evenodd" d="M0.400024 7.77786C0.400024 3.50197 4.11336 0.0229797 8.67822 0.0229797C13.2431 0.0229797 16.9564 3.50197 16.9564 7.77786C16.9564 14.2032 10.1867 19.628 9.12281 20.4806C9.05665 20.5336 9.01256 20.5689 8.99353 20.5857C8.90458 20.6635 8.7914 20.7027 8.67822 20.7027C8.56504 20.7027 8.45187 20.6635 8.36296 20.5857C8.34393 20.5689 8.29987 20.5336 8.23377 20.4806C7.17012 19.6283 0.400024 14.2034 0.400024 7.77786ZM8.67826 12.271C10.9386 12.271 12.7711 10.4111 12.7711 8.11672C12.7711 5.82238 10.9386 3.96245 8.67826 3.96245C6.41787 3.96245 4.58546 5.82238 4.58546 8.11672C4.58546 10.4111 6.41787 12.271 8.67826 12.271Z" fill="#95BEFA"/>
<path fill-rule="evenodd" clip-rule="evenodd" d="M4.01295 21.8499C3.40325 21.8499 2.909 22.3442 2.909 22.9539V26.04C2.909 26.6497 3.40325 27.1439 4.01295 27.1439H13.3464C13.9561 27.1439 14.4503 26.6497 14.4503 26.04V22.9539C14.4503 22.3442 13.9561 21.8499 13.3464 21.8499H4.01295ZM12.1107 23.7944H5.24863V25.1994H12.1107V23.7944Z" fill="white"/>
</svg>