<?xml version="1.0" encoding="UTF-8" standalone="no"?>
<!DOCTYPE svg PUBLIC "-//W3C//DTD SVG 1.1//EN" "http://www.w3.org/Graphics/SVG/1.1/DTD/svg11.dtd">
<svg width="100%" height="100%" viewBox="0 0 157 37" version="1.1" xmlns="http://www.w3.org/2000/svg" xmlns:xlink="http://www.w3.org/1999/xlink" xml:space="preserve" xmlns:serif="http://www.serif.com/" style="fill-rule:evenodd;clip-rule:evenodd;">
    <path d="M45.59,17.307L44.32,14.437L43.741,17.307L41.865,26.772L38.802,26.772L42.996,6.49L43.327,6.49L48.901,17.445L50.557,21.115L52.212,17.445L57.676,6.49L57.98,6.49L62.339,26.772L59.304,26.772L57.262,17.307L56.655,14.437L55.551,17.307L50.64,26.772L50.474,26.772L45.59,17.307Z" style="fill:rgb(40,94,170);fill-rule:nonzero;"/>
    <path d="M70.467,27.048C69.326,27.048 68.268,26.781 67.293,26.247C66.337,25.696 65.564,24.923 64.975,23.93C64.405,22.918 64.12,21.74 64.12,20.398C64.12,19.073 64.368,17.914 64.865,16.921C65.38,15.927 66.107,15.155 67.045,14.603C67.983,14.051 69.087,13.775 70.356,13.775C71.092,13.775 71.782,13.904 72.426,14.161C73.07,14.419 73.612,14.741 74.054,15.127C74.495,15.495 74.79,15.863 74.937,16.231L74.992,14.106L77.834,14.106L77.834,26.772L75.02,26.772L74.965,24.537C74.652,25.199 74.082,25.788 73.254,26.303C72.426,26.799 71.497,27.048 70.467,27.048ZM70.963,24.564C72.012,24.564 72.895,24.206 73.612,23.488C74.33,22.752 74.689,21.796 74.689,20.618L74.689,20.425C74.689,19.634 74.523,18.926 74.192,18.3C73.861,17.675 73.41,17.187 72.84,16.838C72.269,16.488 71.644,16.314 70.963,16.314C69.786,16.314 68.875,16.7 68.232,17.473C67.588,18.227 67.266,19.211 67.266,20.425C67.266,21.658 67.578,22.66 68.204,23.433C68.848,24.187 69.768,24.564 70.963,24.564Z" style="fill:rgb(40,94,170);fill-rule:nonzero;"/>
    <path d="M81.897,14.106L84.767,14.106L84.767,16.452C85.779,14.667 87.361,13.775 89.513,13.775C91.297,13.775 92.742,14.345 93.845,15.486C94.949,16.608 95.501,18.236 95.501,20.37C95.501,21.694 95.225,22.863 94.673,23.874C94.14,24.886 93.404,25.668 92.466,26.22C91.546,26.772 90.516,27.048 89.375,27.048C88.308,27.048 87.379,26.864 86.588,26.496C85.815,26.109 85.208,25.567 84.767,24.868L84.794,33.477L81.897,33.477L81.897,14.106ZM88.685,24.537C89.881,24.537 90.801,24.16 91.445,23.405C92.088,22.633 92.41,21.648 92.41,20.453C92.41,19.202 92.088,18.208 91.445,17.473C90.819,16.718 89.899,16.341 88.685,16.341C88.023,16.341 87.397,16.507 86.809,16.838C86.239,17.151 85.779,17.611 85.429,18.218C85.098,18.806 84.932,19.496 84.932,20.287L84.932,20.48C84.932,21.271 85.098,21.98 85.429,22.605C85.779,23.212 86.239,23.69 86.809,24.04C87.379,24.371 88.004,24.537 88.685,24.537Z" style="fill:rgb(40,94,170);fill-rule:nonzero;"/>
    <path d="M98.736,6.49L101.854,6.49L101.854,24.012L107.676,24.012L107.676,26.772L98.736,26.772L98.736,6.49Z" style="fill:rgb(149,190,250);fill-rule:nonzero;"/>
    <path d="M110.674,14.106L113.765,14.106L113.765,26.772L110.674,26.772L110.674,14.106ZM112.192,11.733C111.622,11.733 111.143,11.54 110.757,11.154C110.371,10.767 110.177,10.289 110.177,9.719C110.177,9.204 110.371,8.762 110.757,8.394C111.143,8.026 111.622,7.842 112.192,7.842C112.744,7.842 113.213,8.026 113.599,8.394C113.985,8.762 114.179,9.204 114.179,9.719C114.179,10.289 113.985,10.767 113.599,11.154C113.231,11.54 112.762,11.733 112.192,11.733Z" style="fill:rgb(149,190,250);fill-rule:nonzero;"/>
    <path d="M125.396,27.048C124.366,27.048 123.437,26.799 122.609,26.303C121.8,25.788 121.239,25.199 120.926,24.537L120.871,26.772L118.001,26.772L118.001,6.49L120.926,6.49L120.926,14.299L120.788,16.452C121.101,15.716 121.708,15.09 122.609,14.575C123.529,14.042 124.523,13.775 125.59,13.775C126.84,13.775 127.926,14.06 128.846,14.63C129.784,15.182 130.501,15.964 130.998,16.976C131.495,17.969 131.743,19.128 131.743,20.453C131.743,21.796 131.449,22.964 130.86,23.957C130.29,24.951 129.517,25.714 128.542,26.247C127.586,26.781 126.537,27.048 125.396,27.048ZM124.9,24.564C126.095,24.564 127.015,24.187 127.659,23.433C128.303,22.66 128.625,21.667 128.625,20.453C128.625,19.22 128.303,18.227 127.659,17.473C127.034,16.7 126.114,16.314 124.9,16.314C123.851,16.314 122.968,16.682 122.251,17.417C121.533,18.135 121.174,19.082 121.174,20.26L121.174,20.453C121.174,21.244 121.34,21.952 121.671,22.577C122.021,23.203 122.471,23.69 123.023,24.04C123.594,24.389 124.219,24.564 124.9,24.564Z" style="fill:rgb(149,190,250);fill-rule:nonzero;"/>
    <path d="M134.839,14.106L137.819,14.106L137.819,16.59C138.113,15.743 138.591,15.063 139.254,14.548C139.916,14.033 140.67,13.775 141.516,13.775C142.105,13.775 142.51,13.83 142.731,13.941L142.317,16.948C142.151,16.838 141.792,16.783 141.241,16.783C140.376,16.783 139.585,17.059 138.867,17.611C138.168,18.162 137.819,19.045 137.819,20.26L137.819,26.772L134.839,26.772L134.839,14.106Z" style="fill:rgb(149,190,250);fill-rule:nonzero;"/>
    <path d="M150.826,27.048C149.318,27.048 148.057,26.753 147.046,26.165C146.034,25.558 145.289,24.757 144.81,23.764C144.332,22.752 144.093,21.648 144.093,20.453C144.093,19.11 144.369,17.932 144.921,16.921C145.491,15.909 146.273,15.136 147.266,14.603C148.26,14.051 149.382,13.775 150.633,13.775C152.583,13.775 154.027,14.318 154.965,15.403C155.922,16.47 156.4,17.978 156.4,19.928C156.4,20.425 156.372,20.94 156.317,21.474L147.211,21.474C147.414,22.596 147.809,23.405 148.398,23.902C149.005,24.399 149.842,24.647 150.909,24.647C151.792,24.647 152.518,24.573 153.089,24.426C153.659,24.279 154.183,24.077 154.662,23.819L155.572,25.944C155.112,26.238 154.487,26.496 153.696,26.717C152.905,26.937 151.948,27.048 150.826,27.048ZM153.503,19.404C153.521,18.264 153.273,17.463 152.758,17.003C152.242,16.525 151.507,16.286 150.55,16.286C148.618,16.286 147.505,17.325 147.211,19.404L153.503,19.404Z" style="fill:rgb(149,190,250);fill-rule:nonzero;"/>
    <g id="Logo">
        <g id="pin">
            <circle cx="18.359" cy="18.5" r="14.045" style="fill:rgb(40,94,170);"/>
            <path d="M13.007,14.685C13.007,11.921 15.408,9.672 18.359,9.672C21.31,9.672 23.71,11.921 23.71,14.685C23.71,18.839 19.334,22.346 18.646,22.897C18.603,22.931 18.575,22.954 18.562,22.965C18.505,23.015 18.432,23.04 18.359,23.04C18.285,23.04 18.212,23.015 18.155,22.965C18.142,22.954 18.114,22.931 18.071,22.897C17.384,22.346 13.007,18.839 13.007,14.685ZM18.359,17.59C19.82,17.59 21.004,16.387 21.004,14.904C21.004,13.421 19.82,12.218 18.359,12.218C16.897,12.218 15.713,13.421 15.713,14.904C15.713,16.387 16.897,17.59 18.359,17.59Z" style="fill:rgb(149,190,250);"/>
            <path d="M15.332,23.797C14.911,23.797 14.659,24.133 14.659,24.47L14.659,26.488C14.659,26.908 14.995,27.16 15.332,27.16L21.385,27.16C21.806,27.16 22.058,26.824 22.058,26.488L22.058,24.47C22.058,24.049 21.722,23.797 21.385,23.797L15.332,23.797ZM20.545,25.058L16.088,25.058L16.088,25.983L20.545,25.983L20.545,25.058Z" style="fill:white;"/>
        </g>
        <g id="gear">
            <circle cx="18.359" cy="18.5" r="14.783" style="fill:none;stroke:rgb(149,190,250);stroke-width:2.41px;"/>
            <g id="cogs">
                <path id="cog" d="M34.173,19.531L35.892,18.5L34.173,17.469L34.173,19.531Z" style="fill:rgb(149,190,250);fill-rule:nonzero;stroke:rgb(149,190,250);stroke-width:0.69px;stroke-linejoin:round;"/>
                <path id="cog1" serif:id="cog" d="M33.668,22.597L35.555,21.921L34.071,20.574L33.668,22.597Z" style="fill:rgb(149,190,250);fill-rule:nonzero;stroke:rgb(149,190,250);stroke-width:0.69px;stroke-linejoin:round;"/>
                <path id="cog2" serif:id="cog" d="M32.575,25.505L34.558,25.21L33.364,23.599L32.575,25.505Z" style="fill:rgb(149,190,250);fill-rule:nonzero;stroke:rgb(149,190,250);stroke-width:0.69px;stroke-linejoin:round;"/>
                <path id="cog3" serif:id="cog" d="M30.935,28.144L32.937,28.241L32.081,26.429L30.935,28.144Z" style="fill:rgb(149,190,250);fill-rule:nonzero;stroke:rgb(149,190,250);stroke-width:0.69px;stroke-linejoin:round;"/>
                <path id="cog4" serif:id="cog" d="M28.812,30.412L30.757,30.898L30.271,28.953L28.812,30.412Z" style="fill:rgb(149,190,250);fill-rule:nonzero;stroke:rgb(149,190,250);stroke-width:0.69px;stroke-linejoin:round;"/>
                <path id="cog5" serif:id="cog" d="M26.287,32.223L28.1,33.079L28.002,31.077L26.287,32.223Z" style="fill:rgb(149,190,250);fill-rule:nonzero;stroke:rgb(149,190,250);stroke-width:0.69px;stroke-linejoin:round;"/>
                <path id="cog6" serif:id="cog" d="M23.458,33.506L25.068,34.699L25.363,32.716L23.458,33.506Z" style="fill:rgb(149,190,250);fill-rule:nonzero;stroke:rgb(149,190,250);stroke-width:0.69px;stroke-linejoin:round;"/>
                <path id="cog7" serif:id="cog" d="M20.432,34.212L21.779,35.697L22.455,33.81L20.432,34.212Z" style="fill:rgb(149,190,250);fill-rule:nonzero;stroke:rgb(149,190,250);stroke-width:0.69px;stroke-linejoin:round;"/>
                <path id="cog8" serif:id="cog" d="M17.327,34.315L18.359,36.034L19.39,34.315L17.327,34.315Z" style="fill:rgb(149,190,250);fill-rule:nonzero;stroke:rgb(149,190,250);stroke-width:0.69px;stroke-linejoin:round;"/>
                <path id="cog9" serif:id="cog" d="M14.262,33.81L14.938,35.697L16.285,34.212L14.262,33.81Z" style="fill:rgb(149,190,250);fill-rule:nonzero;stroke:rgb(149,190,250);stroke-width:0.69px;stroke-linejoin:round;"/>
                <path id="cog10" serif:id="cog" d="M11.354,32.716L11.649,34.699L13.259,33.506L11.354,32.716Z" style="fill:rgb(149,190,250);fill-rule:nonzero;stroke:rgb(149,190,250);stroke-width:0.69px;stroke-linejoin:round;"/>
                <path id="cog11" serif:id="cog" d="M8.715,31.077L8.617,33.079L10.43,32.223L8.715,31.077Z" style="fill:rgb(149,190,250);fill-rule:nonzero;stroke:rgb(149,190,250);stroke-width:0.69px;stroke-linejoin:round;"/>
                <path id="cog12" serif:id="cog" d="M6.446,28.953L5.96,30.898L7.905,30.412L6.446,28.953Z" style="fill:rgb(149,190,250);fill-rule:nonzero;stroke:rgb(149,190,250);stroke-width:0.69px;stroke-linejoin:round;"/>
                <path id="cog13" serif:id="cog" d="M4.636,26.429L3.78,28.241L5.782,28.144L4.636,26.429Z" style="fill:rgb(149,190,250);fill-rule:nonzero;stroke:rgb(149,190,250);stroke-width:0.69px;stroke-linejoin:round;"/>
                <path id="cog14" serif:id="cog" d="M3.353,23.599L2.159,25.21L4.142,25.505L3.353,23.599Z" style="fill:rgb(149,190,250);fill-rule:nonzero;stroke:rgb(149,190,250);stroke-width:0.69px;stroke-linejoin:round;"/>
                <path id="cog15" serif:id="cog" d="M2.646,20.574L1.162,21.921L3.049,22.597L2.646,20.574Z" style="fill:rgb(149,190,250);fill-rule:nonzero;stroke:rgb(149,190,250);stroke-width:0.69px;stroke-linejoin:round;"/>
                <path id="cog16" serif:id="cog" d="M2.544,17.469L0.825,18.5L2.544,19.531L2.544,17.469Z" style="fill:rgb(149,190,250);fill-rule:nonzero;stroke:rgb(149,190,250);stroke-width:0.69px;stroke-linejoin:round;"/>
                <path id="cog17" serif:id="cog" d="M3.049,14.403L1.162,15.079L2.646,16.426L3.049,14.403Z" style="fill:rgb(149,190,250);fill-rule:nonzero;stroke:rgb(149,190,250);stroke-width:0.69px;stroke-linejoin:round;"/>
                <path id="cog18" serif:id="cog" d="M4.142,11.495L2.159,11.79L3.353,13.401L4.142,11.495Z" style="fill:rgb(149,190,250);fill-rule:nonzero;stroke:rgb(149,190,250);stroke-width:0.69px;stroke-linejoin:round;"/>
                <path id="cog19" serif:id="cog" d="M5.782,8.856L3.78,8.759L4.636,10.571L5.782,8.856Z" style="fill:rgb(149,190,250);fill-rule:nonzero;stroke:rgb(149,190,250);stroke-width:0.69px;stroke-linejoin:round;"/>
                <path id="cog20" serif:id="cog" d="M7.905,6.588L5.96,6.102L6.446,8.047L7.905,6.588Z" style="fill:rgb(149,190,250);fill-rule:nonzero;stroke:rgb(149,190,250);stroke-width:0.69px;stroke-linejoin:round;"/>
                <path id="cog21" serif:id="cog" d="M10.43,4.777L8.617,3.921L8.715,5.923L10.43,4.777Z" style="fill:rgb(149,190,250);fill-rule:nonzero;stroke:rgb(149,190,250);stroke-width:0.69px;stroke-linejoin:round;"/>
                <path id="cog22" serif:id="cog" d="M13.259,3.494L11.649,2.301L11.354,4.284L13.259,3.494Z" style="fill:rgb(149,190,250);fill-rule:nonzero;stroke:rgb(149,190,250);stroke-width:0.69px;stroke-linejoin:round;"/>
                <path id="cog23" serif:id="cog" d="M16.285,2.788L14.938,1.303L14.262,3.19L16.285,2.788Z" style="fill:rgb(149,190,250);fill-rule:nonzero;stroke:rgb(149,190,250);stroke-width:0.69px;stroke-linejoin:round;"/>
                <path id="cog24" serif:id="cog" d="M19.39,2.685L18.359,0.966L17.327,2.685L19.39,2.685Z" style="fill:rgb(149,190,250);fill-rule:nonzero;stroke:rgb(149,190,250);stroke-width:0.69px;stroke-linejoin:round;"/>
                <path id="cog25" serif:id="cog" d="M22.455,3.19L21.779,1.303L20.432,2.788L22.455,3.19Z" style="fill:rgb(149,190,250);fill-rule:nonzero;stroke:rgb(149,190,250);stroke-width:0.69px;stroke-linejoin:round;"/>
                <path id="cog26" serif:id="cog" d="M25.363,4.284L25.068,2.301L23.458,3.494L25.363,4.284Z" style="fill:rgb(149,190,250);fill-rule:nonzero;stroke:rgb(149,190,250);stroke-width:0.69px;stroke-linejoin:round;"/>
                <path id="cog27" serif:id="cog" d="M28.002,5.923L28.1,3.921L26.287,4.777L28.002,5.923Z" style="fill:rgb(149,190,250);fill-rule:nonzero;stroke:rgb(149,190,250);stroke-width:0.69px;stroke-linejoin:round;"/>
                <path id="cog28" serif:id="cog" d="M30.271,8.047L30.757,6.102L28.812,6.588L30.271,8.047Z" style="fill:rgb(149,190,250);fill-rule:nonzero;stroke:rgb(149,190,250);stroke-width:0.69px;stroke-linejoin:round;"/>
                <path id="cog29" serif:id="cog" d="M32.081,10.571L32.937,8.759L30.935,8.856L32.081,10.571Z" style="fill:rgb(149,190,250);fill-rule:nonzero;stroke:rgb(149,190,250);stroke-width:0.69px;stroke-linejoin:round;"/>
                <path id="cog30" serif:id="cog" d="M33.364,13.401L34.558,11.79L32.575,11.495L33.364,13.401Z" style="fill:rgb(149,190,250);fill-rule:nonzero;stroke:rgb(149,190,250);stroke-width:0.69px;stroke-linejoin:round;"/>
                <path id="cog31" serif:id="cog" d="M34.071,16.426L35.555,15.079L33.668,14.403L34.071,16.426Z" style="fill:rgb(149,190,250);fill-rule:nonzero;stroke:rgb(149,190,250);stroke-width:0.69px;stroke-linejoin:round;"/>
            </g>
            <g id="mounts">
                <path id="mount" d="M15.952,4.06L18.359,6.467L20.765,4.06L15.952,4.06Z" style="fill:rgb(149,190,250);fill-rule:nonzero;stroke:rgb(149,190,250);stroke-width:1.38px;stroke-linejoin:round;"/>
                <path id="mount1" serif:id="mount" d="M31.348,11.749L29.803,14.782L32.835,16.327L31.348,11.749Z" style="fill:rgb(149,190,250);fill-rule:nonzero;stroke:rgb(149,190,250);stroke-width:1.38px;stroke-linejoin:round;"/>
                <path id="mount2" serif:id="mount" d="M28.793,28.767L25.431,28.235L24.899,31.596L28.793,28.767Z" style="fill:rgb(149,190,250);fill-rule:nonzero;stroke:rgb(149,190,250);stroke-width:1.38px;stroke-linejoin:round;"/>
                <path id="mount3" serif:id="mount" d="M11.818,31.596L11.286,28.235L7.924,28.767L11.818,31.596Z" style="fill:rgb(149,190,250);fill-rule:nonzero;stroke:rgb(149,190,250);stroke-width:1.38px;stroke-linejoin:round;"/>
                <path id="mount4" serif:id="mount" d="M3.882,16.327L6.914,14.782L5.369,11.749L3.882,16.327Z" style="fill:rgb(149,190,250);fill-rule:nonzero;stroke:rgb(149,190,250);stroke-width:1.38px;stroke-linejoin:round;"/>
            </g>
        </g>
        <g id="mount-holes" serif:id="mount holes">
            <ellipse cx="18.359" cy="4.675" rx="0.896" ry="0.896" style="fill:rgb(40,94,170);"/>
            <path d="M4.358,13.951C4.51,13.481 5.016,13.223 5.487,13.376C5.957,13.529 6.215,14.035 6.063,14.505C5.91,14.975 5.404,15.233 4.933,15.08C4.463,14.927 4.205,14.421 4.358,13.951Z" style="fill:rgb(40,94,170);"/>
            <path d="M9.706,30.41C9.306,30.119 9.217,29.558 9.508,29.158C9.799,28.758 10.359,28.669 10.759,28.96C11.159,29.25 11.248,29.811 10.957,30.211C10.666,30.611 10.105,30.7 9.706,30.41Z" style="fill:rgb(40,94,170);"/>
            <path d="M32.359,13.951C32.512,14.421 32.254,14.927 31.784,15.08C31.313,15.233 30.807,14.975 30.654,14.505C30.502,14.035 30.76,13.529 31.23,13.376C31.701,13.223 32.207,13.481 32.359,13.951Z" style="fill:rgb(40,94,170);"/>
            <path d="M27.012,30.41C26.612,30.7 26.051,30.611 25.76,30.211C25.469,29.811 25.558,29.25 25.958,28.96C26.358,28.669 26.919,28.758 27.209,29.158C27.5,29.558 27.411,30.119 27.012,30.41Z" style="fill:rgb(40,94,170);"/>
        </g>
    </g>
</svg>
