<?xml version="1.0" encoding="UTF-8" standalone="no"?>
<svg
   width="144.53781"
   height="31.023722"
   viewBox="0 0 144.53781 31.023722"
   version="1.1"
   xml:space="preserve"
   style="clip-rule:evenodd;fill-rule:evenodd;stroke-linejoin:round;stroke-miterlimit:1.41421"
   id="svg39"
   sodipodi:docname="maplibre-rs-3.svg"
   inkscape:version="1.1.2 (0a00cf5339, 2022-02-04, custom)"
   xmlns:inkscape="http://www.inkscape.org/namespaces/inkscape"
   xmlns:sodipodi="http://sodipodi.sourceforge.net/DTD/sodipodi-0.dtd"
   xmlns="http://www.w3.org/2000/svg"
   xmlns:svg="http://www.w3.org/2000/svg"
   xmlns:serif="http://www.serif.com/"><defs
   id="defs43" /><sodipodi:namedview
   id="namedview41"
   pagecolor="#ffffff"
   bordercolor="#666666"
   borderopacity="1.0"
   inkscape:pageshadow="2"
   inkscape:pageopacity="0.0"
   inkscape:pagecheckerboard="0"
   showgrid="false"
   fit-margin-top="0"
   fit-margin-left="0"
   fit-margin-right="0"
   fit-margin-bottom="0"
   inkscape:zoom="4.4010728"
   inkscape:cx="73.277588"
   inkscape:cy="10.451997"
   inkscape:window-width="1920"
   inkscape:window-height="1035"
   inkscape:window-x="0"
   inkscape:window-y="45"
   inkscape:window-maximized="1"
   inkscape:current-layer="g1002" />
    <rect
   style="display:none;fill:#000000;fill-opacity:1;stroke:#000000;stroke-opacity:1"
   id="rect6563"
   width="194.45264"
   height="106.63935"
   x="-25.155535"
   y="-35.285595" /><g
   id="Layer-1"
   serif:id="Layer 1"
   transform="matrix(0.02147467,0,0,0.02147467,-0.28148229,14.447676)"
   inkscape:label="rust">
        <g
   transform="translate(1009.4,506.362)"
   id="g4">
            <path
   d="m 0,-7.203 -12.072,-25.006 c 0.063,-0.947 0.111,-1.898 0.111,-2.853 0,-28.346 -29.478,-54.471 -79.069,-75.389 v 17.393 c -4.836,-1.919 -9.871,-3.787 -15.117,-5.593 v -8.108 c -70.874,-25.56 -176.383,-41.778 -294.241,-41.778 -102.973,0 -196.529,12.38 -265.791,32.554 v 28.246 h -0.002 v -34.188 c -70.96,22.55 -114.954,53.877 -114.954,88.515 0,5.46 1.101,10.838 3.217,16.113 l -7.228,12.867 c 0,0 -5.792,7.512 4.406,23.362 8.994,13.977 54.048,68.685 77.827,97.335 10.214,14.687 17.141,23.734 17.746,22.859 0.955,-1.386 -6.351,-28.961 -26.635,-60.423 -9.466,-16.895 -20.768,-39.283 -27.554,-55.819 18.942,11.99 130.23,68.029 357.232,67.801 231.994,-0.232 335.115,-72.851 346.433,-82.737 -3.955,15.889 -17.468,48.033 -28.245,70.638 -17.706,32.331 -24.12,60.478 -23.296,61.87 0.524,0.878 6.565,-8.441 15.476,-23.543 C -51.025,87.37 -11.739,30.974 -3.889,16.608 5.007,0.323 0,-7.203 0,-7.203"
   style="fill:#a52b00;fill-rule:nonzero"
   id="path2" />
        </g>
        <g
   transform="translate(1079.49,294.885)"
   id="g8">
            <path
   d="m 0,204.135 -79.343,-58.446 c -0.745,-2.6 -1.49,-5.201 -2.26,-7.781 l 26.062,-37.754 c 2.66,-3.84 3.196,-8.832 1.469,-13.211 -1.731,-4.358 -5.515,-7.482 -9.99,-8.247 l -44.066,-7.479 c -1.709,-3.485 -3.498,-6.916 -5.294,-10.319 L -94.907,18.51 c 1.903,-4.317 1.505,-9.335 -1.022,-13.254 -2.517,-3.937 -6.786,-6.237 -11.338,-6.058 l -44.724,1.625 c -2.315,-3.016 -4.667,-6.003 -7.067,-8.937 l 10.278,-45.432 c 1.042,-4.612 -0.274,-9.443 -3.487,-12.794 -3.195,-3.339 -7.838,-4.722 -12.253,-3.639 l -43.562,10.709 c -2.82,-2.493 -5.688,-4.953 -8.588,-7.365 l 1.567,-46.641 c 0.168,-4.721 -2.033,-9.208 -5.812,-11.829 -3.777,-2.636 -8.57,-3.032 -12.701,-1.074 l -40.638,19.321 c -3.273,-1.878 -6.565,-3.737 -9.892,-5.537 l -7.181,-45.961 c -0.729,-4.656 -3.724,-8.612 -7.919,-10.418 -4.185,-1.817 -8.976,-1.228 -12.648,1.536 l -36.232,27.185 c -3.569,-1.185 -7.153,-2.32 -10.779,-3.407 l -15.617,-43.585 c -1.588,-4.443 -5.25,-7.706 -9.716,-8.624 -4.45,-0.909 -9.028,0.632 -12.114,4.08 l -30.499,34.119 c -3.685,-0.423 -7.377,-0.81 -11.076,-1.131 l -23.549,-39.676 c -2.384,-4.018 -6.597,-6.464 -11.139,-6.464 -4.529,0 -8.75,2.446 -11.118,6.464 l -23.555,39.676 c -3.701,0.321 -7.408,0.708 -11.088,1.131 l -30.499,-34.119 c -3.09,-3.448 -7.684,-4.989 -12.122,-4.08 -4.46,0.93 -8.128,4.181 -9.707,8.624 l -15.629,43.585 c -3.621,1.087 -7.205,2.23 -10.78,3.407 l -36.22,-27.185 c -3.683,-2.774 -8.478,-3.361 -12.668,-1.536 -4.181,1.806 -7.188,5.762 -7.913,10.418 l -7.186,45.961 c -3.322,1.8 -6.614,3.649 -9.895,5.537 l -40.634,-19.321 c -4.127,-1.966 -8.945,-1.562 -12.704,1.074 -3.773,2.621 -5.98,7.108 -5.81,11.829 l 1.562,46.641 c -2.894,2.412 -5.756,4.872 -8.591,7.365 l -43.554,-10.709 c -4.423,-1.074 -9.062,0.3 -12.265,3.639 -3.221,3.351 -4.526,8.182 -3.491,12.794 l 10.257,45.432 c -2.378,2.945 -4.733,5.921 -7.042,8.937 l -44.724,-1.625 c -4.513,-0.135 -8.821,2.121 -11.343,6.058 -2.527,3.919 -2.91,8.937 -1.029,13.254 l 18.528,42.388 c -1.799,3.403 -3.586,6.834 -5.309,10.319 l -44.063,7.479 c -4.479,0.754 -8.252,3.876 -9.994,8.247 -1.728,4.379 -1.167,9.371 1.474,13.211 l 26.066,37.754 c -0.201,0.667 -0.387,1.339 -0.587,2.008 l -73.696,78.285 c 0,0 -11.296,8.851 5.147,29.654 14.5,18.351 88.951,91.096 128.271,129.205 16.606,19.348 27.984,31.329 29.172,30.293 1.876,-1.645 -7.972,-36.847 -40.682,-78.149 -25.216,-37.056 -57.941,-94.049 -50.267,-100.618 0,0 8.729,-11.081 26.242,-19.057 0.641,0.512 -0.662,-0.507 0,0 0,0 369.595,170.491 712.429,2.884 39.164,-7.025 62.873,13.955 62.873,13.955 8.176,4.74 -12.996,63.344 -30.407,102.137 -23.679,44.05 -27.151,78.422 -25.144,79.614 1.268,0.757 9.883,-12.353 22.172,-33.217 C -67.814,332.649 -10.492,252.1 0,232.534 11.895,210.352 0,204.135 0,204.135"
   style="fill:#f74c00;fill-rule:nonzero"
   id="path6" />
        </g>
        <g
   transform="translate(917.896,244.679)"
   id="g12">
            <path
   d="m 0,232.466 c 0,0 53.179,-2.466 123.032,-73.462 l 9.898,-21.979 c 0,0 -108.417,-107.848 60.118,-182.291 0,0 -14.755,24.112 -10.426,117.272 0,0 50.815,-17.649 65.714,-99.94 0,0 74.12,97.724 -80.502,189.377 0,0 -72.54,116.289 -174.805,105.15 z"
   style="fill:#f74c00;fill-rule:nonzero"
   id="path10" />
        </g>
        <g
   transform="translate(676.997,488.361)"
   id="g16">
            <path
   d="m 0,-78.192 c 0,0 36.935,-40.443 73.871,0 0,0 29.022,53.927 0,80.887 0,0 -47.487,37.748 -73.871,0 0,0 -31.658,-29.659 0,-80.887"
   style="fill-rule:nonzero"
   id="path14" />
        </g>
        <g
   transform="translate(719.761,425.169)"
   id="g20">
            <path
   d="m 0,0.004 c 0,15.746 -9.282,28.514 -20.732,28.514 -11.448,0 -20.73,-12.768 -20.73,-28.514 0,-15.75 9.282,-28.518 20.73,-28.518 C -9.282,-28.514 0,-15.746 0,0.004"
   style="fill:#ffffff;fill-rule:nonzero"
   id="path18" />
        </g>
        <g
   transform="translate(512.148,482.736)"
   id="g24">
            <path
   d="m 0,-83.609 c 0,0 63.355,-28.052 80.648,34.562 0,0 18.114,72.98 -52.03,77.099 0,0 -89.444,-17.228 -28.618,-111.661"
   style="fill-rule:nonzero"
   id="path22" />
        </g>
        <g
   transform="translate(543.968,426.204)"
   id="g28">
            <path
   d="m 0,0.002 c 0,16.239 -9.572,29.409 -21.381,29.409 -11.804,0 -21.379,-13.17 -21.379,-29.409 0,-16.244 9.575,-29.411 21.379,-29.411 C -9.572,-29.409 0,-16.242 0,0.002"
   style="fill:#ffffff;fill-rule:nonzero"
   id="path26" />
        </g>
        <g
   transform="translate(593.317,576.574)"
   id="g32">
            <path
   d="m 0,-40.271 80.796,-6.484 c 0,0 -2.738,13.006 -13.279,22.769 0,0 -27.79,30.47 -59.673,-2.533 0,0 -5.217,-5.629 -7.844,-13.752"
   style="fill-rule:nonzero"
   id="path30" />
        </g>
        <g
   transform="translate(269.796,270.778)"
   id="g36">
            <path
   d="m 0,190.741 c -0.667,0 -1.321,0.049 -1.973,0.101 -26.234,-5.971 -99.973,-25.185 -119.464,-56.363 0,0 99.227,-112.872 -55.86,-185.019 l 18.057,124.878 c 0,0 -47.809,-31.949 -58.126,-101.346 0,0 -116.423,84.494 51.384,165.474 0,0 15.22,57.187 161.349,102.815 l 0.107,-0.435 c 1.471,0.272 2.977,0.435 4.526,0.435 13.808,0 25.003,-11.312 25.003,-25.271 0,-13.956 -11.195,-25.269 -25.003,-25.269"
   style="fill:#f74c00;fill-rule:nonzero"
   id="path34" />
        </g>
    </g><g
   id="g1002"
   transform="translate(4.1378167,1.0467225)"
   inkscape:label="maplibre"><path
     d="M 29.5898,13.807 28.3205,10.9372 27.741,13.807 25.8646,23.2717 H 22.8017 L 26.996,2.99011 h 0.3311 l 5.574,10.95479 1.6556,3.67 1.6557,-3.67 5.4636,-10.95479 h 0.3035 L 46.3394,23.2717 H 43.304 L 41.2621,13.807 40.655,10.9372 39.5513,13.807 34.6395,23.2717 H 34.474 Z"
     fill="#ffffff"
     id="path2-3" /><path
     d="m 54.4667,23.5476 c -1.1406,0 -2.1983,-0.2667 -3.1733,-0.8002 -0.9566,-0.5519 -1.7293,-1.3245 -2.3179,-2.3179 -0.5703,-1.0118 -0.8554,-2.1891 -0.8554,-3.532 0,-1.3245 0.2483,-2.4835 0.745,-3.4769 0.5151,-0.9933 1.2417,-1.766 2.1799,-2.3179 0.9382,-0.5518 2.042,-0.8278 3.3113,-0.8278 0.7358,0 1.4257,0.1288 2.0695,0.3863 0.6439,0.2576 1.1866,0.5795 1.6281,0.9658 0.4415,0.368 0.7358,0.7359 0.883,1.1038 l 0.0552,-2.1247 h 2.8422 v 12.6656 h -2.8146 l -0.0552,-2.2351 c -0.3127,0.6622 -0.883,1.2509 -1.7108,1.766 -0.8279,0.4967 -1.7569,0.745 -2.787,0.745 z m 0.4967,-2.4834 c 1.0485,0 1.9315,-0.3587 2.649,-1.0762 0.7174,-0.7358 1.0762,-1.6924 1.0762,-2.8698 v -0.1931 c 0,-0.791 -0.1656,-1.4993 -0.4967,-2.1248 -0.3312,-0.6254 -0.7819,-1.1129 -1.3521,-1.4624 -0.5703,-0.3496 -1.1958,-0.5243 -1.8764,-0.5243 -1.1774,0 -2.088,0.3863 -2.7318,1.1589 -0.6439,0.7543 -0.9658,1.7384 -0.9658,2.9526 0,1.2325 0.3127,2.2351 0.9382,3.0077 0.6438,0.7543 1.5636,1.1314 2.7594,1.1314 z"
     fill="#ffffff"
     id="path4" /><path
     d="m 65.8971,10.6061 h 2.8697 v 2.3454 c 1.0118,-1.7844 2.5939,-2.6766 4.7462,-2.6766 1.7844,0 3.2285,0.5703 4.3323,1.7109 1.1037,1.1221 1.6556,2.7502 1.6556,4.8841 0,1.3245 -0.2759,2.4926 -0.8278,3.5044 -0.5335,1.0118 -1.2694,1.7936 -2.2075,2.3455 -0.9198,0.5519 -1.95,0.8278 -3.0906,0.8278 -1.0669,0 -1.9959,-0.1839 -2.787,-0.5518 -0.7726,-0.3864 -1.3797,-0.929 -1.8212,-1.6281 l 0.0276,8.6093 h -2.8973 z m 6.7881,10.4305 c 1.1957,0 2.1155,-0.3771 2.7594,-1.1314 0.6438,-0.7726 0.9658,-1.7568 0.9658,-2.9525 0,-1.251 -0.322,-2.2443 -0.9658,-2.9802 -0.6255,-0.7542 -1.5453,-1.1313 -2.7594,-1.1313 -0.6623,0 -1.2877,0.1655 -1.8764,0.4967 -0.5703,0.3127 -1.0302,0.7726 -1.3797,1.3797 -0.3311,0.5886 -0.4967,1.2785 -0.4967,2.0695 v 0.1932 c 0,0.791 0.1656,1.4992 0.4967,2.1247 0.3495,0.6071 0.8094,1.0854 1.3797,1.4349 0.5703,0.3311 1.1957,0.4967 1.8764,0.4967 z"
     fill="#ffffff"
     id="path6-6" /><path
     d="M 82.7358,2.99011 H 85.854 V 20.5123 h 5.8223 v 2.7594 h -8.9405 z"
     fill="#95befa"
     id="path8"
     style="fill:#f74c00;fill-opacity:1" /><path
     d="m 94.6741,10.6061 h 3.0906 v 12.6656 h -3.0906 z m 1.5177,-2.37313 c -0.5703,0 -1.0486,-0.19316 -1.4349,-0.57947 -0.3863,-0.38632 -0.5795,-0.86461 -0.5795,-1.43489 0,-0.51509 0.1932,-0.95659 0.5795,-1.32451 0.3863,-0.36792 0.8646,-0.55188 1.4349,-0.55188 0.5519,0 1.021,0.18396 1.4073,0.55188 0.3863,0.36792 0.5795,0.80942 0.5795,1.32451 0,0.57028 -0.1932,1.04857 -0.5795,1.43489 -0.3679,0.38631 -0.837,0.57947 -1.4073,0.57947 z"
     fill="#95befa"
     id="path10-7"
     style="fill:#f74c00;fill-opacity:1" /><path
     d="m 109.396,23.5476 c -1.03,0 -1.959,-0.2483 -2.787,-0.745 -0.809,-0.5151 -1.37,-1.1038 -1.683,-1.766 l -0.055,2.2351 h -2.87 V 2.99011 h 2.925 v 7.80909 l -0.138,2.1523 c 0.313,-0.7358 0.92,-1.3613 1.821,-1.8763 0.92,-0.5335 1.914,-0.8003 2.981,-0.8003 1.25,0 2.336,0.2852 3.256,0.8554 0.938,0.5519 1.655,1.3338 2.152,2.3455 0.497,0.9934 0.745,2.1524 0.745,3.4769 0,1.3429 -0.294,2.511 -0.883,3.5044 -0.57,0.9934 -1.343,1.7568 -2.318,2.2903 -0.956,0.5335 -2.005,0.8002 -3.146,0.8002 z M 108.9,21.0642 c 1.195,0 2.115,-0.3771 2.759,-1.1314 0.644,-0.7726 0.966,-1.766 0.966,-2.9801 0,-1.2326 -0.322,-2.2259 -0.966,-2.9802 -0.625,-0.7726 -1.545,-1.1589 -2.759,-1.1589 -1.049,0 -1.932,0.3679 -2.649,1.1037 -0.718,0.7175 -1.077,1.6649 -1.077,2.8422 v 0.1932 c 0,0.791 0.166,1.4992 0.497,2.1247 0.35,0.6255 0.8,1.113 1.352,1.4625 0.571,0.3495 1.196,0.5243 1.877,0.5243 z"
     fill="#95befa"
     id="path12"
     style="fill:#f74c00;fill-opacity:1" /><path
     d="m 118.839,10.6061 h 2.98 v 2.4834 c 0.294,-0.8462 0.772,-1.5269 1.435,-2.0419 0.662,-0.5151 1.416,-0.7727 2.262,-0.7727 0.589,0 0.994,0.0552 1.215,0.1656 l -0.414,3.0077 c -0.166,-0.1103 -0.525,-0.1655 -1.076,-0.1655 -0.865,0 -1.656,0.2759 -2.374,0.8278 -0.699,0.5519 -1.048,1.4349 -1.048,2.649 v 6.5122 h -2.98 z"
     fill="#95befa"
     id="path14-5"
     style="fill:#f74c00;fill-opacity:1" /><path
     d="m 134.826,23.5476 c -1.508,0 -2.769,-0.2943 -3.78,-0.883 -1.012,-0.607 -1.757,-1.4073 -2.236,-2.4006 -0.478,-1.0118 -0.717,-2.1156 -0.717,-3.3113 0,-1.3429 0.276,-2.5203 0.828,-3.5321 0.57,-1.0117 1.352,-1.7844 2.345,-2.3179 0.994,-0.5518 2.116,-0.8278 3.367,-0.8278 1.95,0 3.394,0.5427 4.332,1.6281 0.957,1.0669 1.435,2.5754 1.435,4.5254 0,0.4967 -0.028,1.0118 -0.083,1.5453 h -9.106 c 0.203,1.1221 0.598,1.9315 1.187,2.4282 0.607,0.4967 1.444,0.7451 2.511,0.7451 0.883,0 1.609,-0.0736 2.18,-0.2208 0.57,-0.1472 1.094,-0.3495 1.573,-0.6071 l 0.91,2.1248 c -0.46,0.2943 -1.085,0.5519 -1.876,0.7726 -0.791,0.2208 -1.748,0.3311 -2.87,0.3311 z m 2.677,-7.6435 c 0.018,-1.1406 -0.23,-1.9408 -0.745,-2.4007 -0.516,-0.4783 -1.251,-0.7174 -2.208,-0.7174 -1.932,0 -3.045,1.0394 -3.339,3.1181 z"
     fill="#95befa"
     id="path16"
     style="fill:#f74c00;fill-opacity:1" /><path
     fill-rule="evenodd"
     clip-rule="evenodd"
     d="m 2.3657686,4.5283988 c 0,-3.0740133 2.6695832,-5.5751213 5.9513424,-5.5751213 3.281773,0 5.951331,2.501108 5.951331,5.5751213 0,4.6192912 -4.866858,8.5192762 -5.631708,9.1322262 -0.04756,0.0381 -0.07926,0.06348 -0.09294,0.07556 -0.06395,0.05593 -0.145314,0.08411 -0.226682,0.08411 -0.08137,0 -0.162727,-0.02818 -0.226646,-0.08411 -0.01368,-0.01208 -0.04536,-0.03746 -0.092877,-0.07556 C 7.2329109,13.047891 2.3657686,9.147834 2.3657686,4.5283988 Z M 8.31714,7.7585971 c 1.624998,0 2.942415,-1.3371152 2.942415,-2.9865858 0,-1.6494418 -1.317417,-2.9865786 -2.942415,-2.9865786 -1.625035,0 -2.9423871,1.3371368 -2.9423871,2.9865786 0,1.6494706 1.3173521,2.9865858 2.9423871,2.9865858 z"
     fill="#95befa"
     id="path18-3"
     style="fill:#f74c00;fill-opacity:1;stroke-width:0.718918" /></g>
<g
   id="g1011"
   transform="translate(4.1378167,-0.9532775)"
   inkscape:label="maplibre"
   style="display:none"><path
     d="M 29.5898,13.807 28.3205,10.9372 27.741,13.807 25.8646,23.2717 H 22.8017 L 26.996,2.99011 h 0.3311 l 5.574,10.95479 1.6556,3.67 1.6557,-3.67 5.4636,-10.95479 h 0.3035 L 46.3394,23.2717 H 43.304 L 41.2621,13.807 40.655,10.9372 39.5513,13.807 34.6395,23.2717 H 34.474 Z"
     fill="#ffffff"
     id="path991" /><path
     d="m 54.4667,23.5476 c -1.1406,0 -2.1983,-0.2667 -3.1733,-0.8002 -0.9566,-0.5519 -1.7293,-1.3245 -2.3179,-2.3179 -0.5703,-1.0118 -0.8554,-2.1891 -0.8554,-3.532 0,-1.3245 0.2483,-2.4835 0.745,-3.4769 0.5151,-0.9933 1.2417,-1.766 2.1799,-2.3179 0.9382,-0.5518 2.042,-0.8278 3.3113,-0.8278 0.7358,0 1.4257,0.1288 2.0695,0.3863 0.6439,0.2576 1.1866,0.5795 1.6281,0.9658 0.4415,0.368 0.7358,0.7359 0.883,1.1038 l 0.0552,-2.1247 h 2.8422 v 12.6656 h -2.8146 l -0.0552,-2.2351 c -0.3127,0.6622 -0.883,1.2509 -1.7108,1.766 -0.8279,0.4967 -1.7569,0.745 -2.787,0.745 z m 0.4967,-2.4834 c 1.0485,0 1.9315,-0.3587 2.649,-1.0762 0.7174,-0.7358 1.0762,-1.6924 1.0762,-2.8698 v -0.1931 c 0,-0.791 -0.1656,-1.4993 -0.4967,-2.1248 -0.3312,-0.6254 -0.7819,-1.1129 -1.3521,-1.4624 -0.5703,-0.3496 -1.1958,-0.5243 -1.8764,-0.5243 -1.1774,0 -2.088,0.3863 -2.7318,1.1589 -0.6439,0.7543 -0.9658,1.7384 -0.9658,2.9526 0,1.2325 0.3127,2.2351 0.9382,3.0077 0.6438,0.7543 1.5636,1.1314 2.7594,1.1314 z"
     fill="#ffffff"
     id="path993" /><path
     d="m 65.8971,10.6061 h 2.8697 v 2.3454 c 1.0118,-1.7844 2.5939,-2.6766 4.7462,-2.6766 1.7844,0 3.2285,0.5703 4.3323,1.7109 1.1037,1.1221 1.6556,2.7502 1.6556,4.8841 0,1.3245 -0.2759,2.4926 -0.8278,3.5044 -0.5335,1.0118 -1.2694,1.7936 -2.2075,2.3455 -0.9198,0.5519 -1.95,0.8278 -3.0906,0.8278 -1.0669,0 -1.9959,-0.1839 -2.787,-0.5518 -0.7726,-0.3864 -1.3797,-0.929 -1.8212,-1.6281 l 0.0276,8.6093 h -2.8973 z m 6.7881,10.4305 c 1.1957,0 2.1155,-0.3771 2.7594,-1.1314 0.6438,-0.7726 0.9658,-1.7568 0.9658,-2.9525 0,-1.251 -0.322,-2.2443 -0.9658,-2.9802 -0.6255,-0.7542 -1.5453,-1.1313 -2.7594,-1.1313 -0.6623,0 -1.2877,0.1655 -1.8764,0.4967 -0.5703,0.3127 -1.0302,0.7726 -1.3797,1.3797 -0.3311,0.5886 -0.4967,1.2785 -0.4967,2.0695 v 0.1932 c 0,0.791 0.1656,1.4992 0.4967,2.1247 0.3495,0.6071 0.8094,1.0854 1.3797,1.4349 0.5703,0.3311 1.1957,0.4967 1.8764,0.4967 z"
     fill="#ffffff"
     id="path995" /><path
     d="M 82.7358,2.99011 H 85.854 V 20.5123 h 5.8223 v 2.7594 h -8.9405 z"
     fill="#95befa"
     id="path997" /><path
     d="m 94.6741,10.6061 h 3.0906 v 12.6656 h -3.0906 z m 1.5177,-2.37313 c -0.5703,0 -1.0486,-0.19316 -1.4349,-0.57947 -0.3863,-0.38632 -0.5795,-0.86461 -0.5795,-1.43489 0,-0.51509 0.1932,-0.95659 0.5795,-1.32451 0.3863,-0.36792 0.8646,-0.55188 1.4349,-0.55188 0.5519,0 1.021,0.18396 1.4073,0.55188 0.3863,0.36792 0.5795,0.80942 0.5795,1.32451 0,0.57028 -0.1932,1.04857 -0.5795,1.43489 -0.3679,0.38631 -0.837,0.57947 -1.4073,0.57947 z"
     fill="#95befa"
     id="path999" /><path
     d="m 109.396,23.5476 c -1.03,0 -1.959,-0.2483 -2.787,-0.745 -0.809,-0.5151 -1.37,-1.1038 -1.683,-1.766 l -0.055,2.2351 h -2.87 V 2.99011 h 2.925 v 7.80909 l -0.138,2.1523 c 0.313,-0.7358 0.92,-1.3613 1.821,-1.8763 0.92,-0.5335 1.914,-0.8003 2.981,-0.8003 1.25,0 2.336,0.2852 3.256,0.8554 0.938,0.5519 1.655,1.3338 2.152,2.3455 0.497,0.9934 0.745,2.1524 0.745,3.4769 0,1.3429 -0.294,2.511 -0.883,3.5044 -0.57,0.9934 -1.343,1.7568 -2.318,2.2903 -0.956,0.5335 -2.005,0.8002 -3.146,0.8002 z M 108.9,21.0642 c 1.195,0 2.115,-0.3771 2.759,-1.1314 0.644,-0.7726 0.966,-1.766 0.966,-2.9801 0,-1.2326 -0.322,-2.2259 -0.966,-2.9802 -0.625,-0.7726 -1.545,-1.1589 -2.759,-1.1589 -1.049,0 -1.932,0.3679 -2.649,1.1037 -0.718,0.7175 -1.077,1.6649 -1.077,2.8422 v 0.1932 c 0,0.791 0.166,1.4992 0.497,2.1247 0.35,0.6255 0.8,1.113 1.352,1.4625 0.571,0.3495 1.196,0.5243 1.877,0.5243 z"
     fill="#95befa"
     id="path1001" /><path
     d="m 118.839,10.6061 h 2.98 v 2.4834 c 0.294,-0.8462 0.772,-1.5269 1.435,-2.0419 0.662,-0.5151 1.416,-0.7727 2.262,-0.7727 0.589,0 0.994,0.0552 1.215,0.1656 l -0.414,3.0077 c -0.166,-0.1103 -0.525,-0.1655 -1.076,-0.1655 -0.865,0 -1.656,0.2759 -2.374,0.8278 -0.699,0.5519 -1.048,1.4349 -1.048,2.649 v 6.5122 h -2.98 z"
     fill="#95befa"
     id="path1003" /><path
     d="m 134.826,23.5476 c -1.508,0 -2.769,-0.2943 -3.78,-0.883 -1.012,-0.607 -1.757,-1.4073 -2.236,-2.4006 -0.478,-1.0118 -0.717,-2.1156 -0.717,-3.3113 0,-1.3429 0.276,-2.5203 0.828,-3.5321 0.57,-1.0117 1.352,-1.7844 2.345,-2.3179 0.994,-0.5518 2.116,-0.8278 3.367,-0.8278 1.95,0 3.394,0.5427 4.332,1.6281 0.957,1.0669 1.435,2.5754 1.435,4.5254 0,0.4967 -0.028,1.0118 -0.083,1.5453 h -9.106 c 0.203,1.1221 0.598,1.9315 1.187,2.4282 0.607,0.4967 1.444,0.7451 2.511,0.7451 0.883,0 1.609,-0.0736 2.18,-0.2208 0.57,-0.1472 1.094,-0.3495 1.573,-0.6071 l 0.91,2.1248 c -0.46,0.2943 -1.085,0.5519 -1.876,0.7726 -0.791,0.2208 -1.748,0.3311 -2.87,0.3311 z m 2.677,-7.6435 c 0.018,-1.1406 -0.23,-1.9408 -0.745,-2.4007 -0.516,-0.4783 -1.251,-0.7174 -2.208,-0.7174 -1.932,0 -3.045,1.0394 -3.339,3.1181 z"
     fill="#95befa"
     id="path1005" /><path
     fill-rule="evenodd"
     clip-rule="evenodd"
     d="m 0.400024,7.77786 c 0,-4.27589 3.713336,-7.7548803 8.278196,-7.7548803 4.56488,0 8.27818,3.4789903 8.27818,7.7548803 0,6.42534 -6.7697,11.85014 -7.83359,12.70274 -0.06616,0.053 -0.11025,0.0883 -0.12928,0.1051 -0.08895,0.0778 -0.20213,0.117 -0.31531,0.117 -0.11318,0 -0.22635,-0.0392 -0.31526,-0.117 C 8.34393,20.5689 8.29987,20.5336 8.23377,20.4806 7.17012,19.6283 0.400024,14.2034 0.400024,7.77786 Z M 8.67826,12.271 c 2.26034,0 4.09284,-1.8599 4.09284,-4.15428 0,-2.29434 -1.8325,-4.15427 -4.09284,-4.15427 -2.26039,0 -4.0928,1.85993 -4.0928,4.15427 0,2.29438 1.83241,4.15428 4.0928,4.15428 z"
     fill="#95befa"
     id="path1007" /><path
     fill-rule="evenodd"
     clip-rule="evenodd"
     d="m 4.01295,21.8499 c -0.6097,0 -1.10395,0.4943 -1.10395,1.104 V 26.04 c 0,0.6097 0.49425,1.1039 1.10395,1.1039 h 9.33345 c 0.6097,0 1.1039,-0.4942 1.1039,-1.1039 v -3.0861 c 0,-0.6097 -0.4942,-1.104 -1.1039,-1.104 z m 8.09775,1.9445 H 5.24863 v 1.405 h 6.86207 z"
     fill="#ffffff"
     id="path1009" /></g></svg>
