<?xml version="1.0" encoding="UTF-8" standalone="no"?>
<!DOCTYPE svg PUBLIC "-//W3C//DTD SVG 1.1//EN" "http://www.w3.org/Graphics/SVG/1.1/DTD/svg11.dtd">
<svg width="100%" height="100%" viewBox="0 0 165 45" version="1.1" xmlns="http://www.w3.org/2000/svg" xmlns:xlink="http://www.w3.org/1999/xlink" xml:space="preserve" xmlns:serif="http://www.serif.com/" style="fill-rule:evenodd;clip-rule:evenodd;">
    <g transform="matrix(1,0,0,1,19,7.5)">
        <path d="M29.59,13.807L28.321,10.937L27.741,13.807L25.865,23.272L22.802,23.272L26.996,2.99L27.327,2.99L32.901,13.945L34.557,17.615L36.212,13.945L41.676,2.99L41.98,2.99L46.339,23.272L43.304,23.272L41.262,13.807L40.655,10.937L39.551,13.807L34.64,23.272L34.474,23.272L29.59,13.807Z" style="fill:rgb(40,94,170);fill-rule:nonzero;"/>
    </g>
    <g transform="matrix(1,0,0,1,19,7.5)">
        <path d="M54.467,23.548C53.326,23.548 52.268,23.281 51.293,22.747C50.337,22.196 49.564,21.423 48.975,20.43C48.405,19.418 48.12,18.24 48.12,16.898C48.12,15.573 48.368,14.414 48.865,13.421C49.38,12.427 50.107,11.655 51.045,11.103C51.983,10.551 53.087,10.275 54.356,10.275C55.092,10.275 55.782,10.404 56.426,10.661C57.07,10.919 57.612,11.241 58.054,11.627C58.495,11.995 58.79,12.363 58.937,12.731L58.992,10.606L61.834,10.606L61.834,23.272L59.02,23.272L58.965,21.037C58.652,21.699 58.082,22.288 57.254,22.803C56.426,23.299 55.497,23.548 54.467,23.548ZM54.963,21.064C56.012,21.064 56.895,20.706 57.612,19.988C58.33,19.252 58.689,18.296 58.689,17.118L58.689,16.925C58.689,16.134 58.523,15.426 58.192,14.8C57.861,14.175 57.41,13.687 56.84,13.338C56.27,12.988 55.644,12.814 54.963,12.814C53.786,12.814 52.875,13.2 52.232,13.973C51.588,14.727 51.266,15.711 51.266,16.925C51.266,18.158 51.579,19.16 52.204,19.933C52.848,20.687 53.768,21.064 54.963,21.064Z" style="fill:rgb(40,94,170);fill-rule:nonzero;"/>
    </g>
    <g transform="matrix(1,0,0,1,19,7.5)">
        <path d="M65.897,10.606L68.767,10.606L68.767,12.951C69.779,11.167 71.361,10.275 73.513,10.275C75.297,10.275 76.742,10.845 77.845,11.986C78.949,13.108 79.501,14.736 79.501,16.87C79.501,18.194 79.225,19.363 78.673,20.374C78.14,21.386 77.404,22.168 76.466,22.72C75.546,23.272 74.516,23.548 73.375,23.548C72.308,23.548 71.379,23.364 70.588,22.996C69.815,22.609 69.208,22.067 68.767,21.368L68.794,29.977L65.897,29.977L65.897,10.606ZM72.685,21.037C73.881,21.037 74.801,20.66 75.445,19.905C76.088,19.133 76.41,18.148 76.41,16.953C76.41,15.702 76.088,14.708 75.445,13.973C74.819,13.218 73.899,12.841 72.685,12.841C72.023,12.841 71.397,13.007 70.809,13.338C70.239,13.651 69.779,14.111 69.429,14.718C69.098,15.306 68.932,15.996 68.932,16.787L68.932,16.98C68.932,17.771 69.098,18.48 69.429,19.105C69.779,19.712 70.239,20.19 70.809,20.54C71.379,20.871 72.004,21.037 72.685,21.037Z" style="fill:rgb(40,94,170);fill-rule:nonzero;"/>
    </g>
    <g transform="matrix(1,0,0,1,19,7.5)">
        <path d="M82.736,2.99L85.854,2.99L85.854,20.512L91.676,20.512L91.676,23.272L82.736,23.272L82.736,2.99Z" style="fill:rgb(149,190,250);fill-rule:nonzero;"/>
    </g>
    <g transform="matrix(1,0,0,1,19,7.5)">
        <path d="M94.674,10.606L97.765,10.606L97.765,23.272L94.674,23.272L94.674,10.606ZM96.192,8.233C95.622,8.233 95.143,8.04 94.757,7.654C94.371,7.267 94.177,6.789 94.177,6.219C94.177,5.704 94.371,5.262 94.757,4.894C95.143,4.526 95.622,4.342 96.192,4.342C96.744,4.342 97.213,4.526 97.599,4.894C97.985,5.262 98.179,5.704 98.179,6.219C98.179,6.789 97.985,7.267 97.599,7.654C97.231,8.04 96.762,8.233 96.192,8.233Z" style="fill:rgb(149,190,250);fill-rule:nonzero;"/>
    </g>
    <g transform="matrix(1,0,0,1,19,7.5)">
        <path d="M109.396,23.548C108.366,23.548 107.437,23.299 106.609,22.803C105.8,22.288 105.239,21.699 104.926,21.037L104.871,23.272L102.001,23.272L102.001,2.99L104.926,2.99L104.926,10.799L104.788,12.951C105.101,12.216 105.708,11.59 106.609,11.075C107.529,10.542 108.523,10.275 109.59,10.275C110.84,10.275 111.926,10.56 112.846,11.13C113.784,11.682 114.501,12.464 114.998,13.476C115.495,14.469 115.743,15.628 115.743,16.953C115.743,18.296 115.449,19.464 114.86,20.457C114.29,21.451 113.517,22.214 112.542,22.747C111.586,23.281 110.537,23.548 109.396,23.548ZM108.9,21.064C110.095,21.064 111.015,20.687 111.659,19.933C112.303,19.16 112.625,18.167 112.625,16.953C112.625,15.72 112.303,14.727 111.659,13.973C111.034,13.2 110.114,12.814 108.9,12.814C107.851,12.814 106.968,13.182 106.251,13.917C105.533,14.635 105.174,15.582 105.174,16.76L105.174,16.953C105.174,17.744 105.34,18.452 105.671,19.077C106.021,19.703 106.471,20.19 107.023,20.54C107.594,20.889 108.219,21.064 108.9,21.064Z" style="fill:rgb(149,190,250);fill-rule:nonzero;"/>
    </g>
    <g transform="matrix(1,0,0,1,19,7.5)">
        <path d="M118.839,10.606L121.819,10.606L121.819,13.089C122.113,12.243 122.591,11.563 123.254,11.048C123.916,10.533 124.67,10.275 125.516,10.275C126.105,10.275 126.51,10.33 126.731,10.441L126.317,13.448C126.151,13.338 125.792,13.283 125.241,13.283C124.376,13.283 123.585,13.559 122.867,14.111C122.168,14.662 121.819,15.545 121.819,16.76L121.819,23.272L118.839,23.272L118.839,10.606Z" style="fill:rgb(149,190,250);fill-rule:nonzero;"/>
    </g>
    <g transform="matrix(1,0,0,1,19,7.5)">
        <path d="M134.826,23.548C133.318,23.548 132.057,23.253 131.046,22.665C130.034,22.058 129.289,21.257 128.81,20.264C128.332,19.252 128.093,18.148 128.093,16.953C128.093,15.61 128.369,14.432 128.921,13.421C129.491,12.409 130.273,11.636 131.266,11.103C132.26,10.551 133.382,10.275 134.633,10.275C136.583,10.275 138.027,10.818 138.965,11.903C139.922,12.97 140.4,14.478 140.4,16.428C140.4,16.925 140.372,17.44 140.317,17.974L131.211,17.974C131.414,19.096 131.809,19.905 132.398,20.402C133.005,20.899 133.842,21.147 134.909,21.147C135.792,21.147 136.518,21.073 137.089,20.926C137.659,20.779 138.183,20.577 138.662,20.319L139.572,22.444C139.112,22.738 138.487,22.996 137.696,23.217C136.905,23.437 135.948,23.548 134.826,23.548ZM137.503,15.904C137.521,14.764 137.273,13.963 136.758,13.503C136.242,13.025 135.507,12.786 134.55,12.786C132.618,12.786 131.505,13.825 131.211,15.904L137.503,15.904Z" style="fill:rgb(149,190,250);fill-rule:nonzero;"/>
    </g>
    <g id="Logo" transform="matrix(0.0743591,0,0,0.0743591,-8.18244,-4.96454)">
        <g id="pin" transform="matrix(2.71376,0,0,2.71376,233.68,205.756)">
            <g transform="matrix(4.86716,0,0,4.86716,-12.724,-12.724)">
                <circle cx="15" cy="15" r="14.3" style="fill:rgb(40,94,170);"/>
            </g>
            <g transform="matrix(3.20362,0,0,3.20362,32.4816,16.4597)">
                <path d="M0.4,7.778C0.4,3.502 4.113,0.023 8.678,0.023C13.243,0.023 16.956,3.502 16.956,7.778C16.956,14.203 10.187,19.628 9.123,20.481C9.057,20.534 9.013,20.569 8.994,20.586C8.905,20.664 8.791,20.703 8.678,20.703C8.565,20.703 8.452,20.664 8.363,20.586C8.344,20.569 8.3,20.534 8.234,20.481C7.17,19.628 0.4,14.203 0.4,7.778ZM8.678,12.271C10.939,12.271 12.771,10.411 12.771,8.117C12.771,5.822 10.939,3.962 8.678,3.962C6.418,3.962 4.585,5.822 4.585,8.117C4.585,10.411 6.418,12.271 8.678,12.271Z" style="fill:rgb(149,190,250);"/>
            </g>
            <g transform="matrix(4.16667,0,0,4.16667,-2.21667,-2.21667)">
                <path d="M11.4,21.3C10.9,21.3 10.6,21.7 10.6,22.1L10.6,24.5C10.6,25 11,25.3 11.4,25.3L18.6,25.3C19.1,25.3 19.4,24.9 19.4,24.5L19.4,22.1C19.4,21.6 19,21.3 18.6,21.3L11.4,21.3ZM17.6,22.8L12.3,22.8L12.3,23.9L17.6,23.9L17.6,22.8Z" style="fill:white;"/>
            </g>
        </g>
        <g id="gear" transform="matrix(4.62351,0,0,4.62351,397.275,369.35)">
            <circle cx="0" cy="0" r="43" style="fill:none;stroke:rgb(149,190,250);stroke-width:7px;"/>
            <g id="cogs">
                <path id="cog" d="M46,3L51,0L46,-3L46,3Z" style="fill:rgb(149,190,250);fill-rule:nonzero;stroke:rgb(149,190,250);stroke-width:2px;stroke-linejoin:round;"/>
                <g id="cog1" serif:id="cog" transform="matrix(0.980785,0.19509,-0.19509,0.980785,0,0)">
                    <path d="M46,3L51,0L46,-3L46,3Z" style="fill:rgb(149,190,250);fill-rule:nonzero;stroke:rgb(149,190,250);stroke-width:2px;stroke-linejoin:round;"/>
                </g>
                <g id="cog2" serif:id="cog" transform="matrix(0.92388,0.382683,-0.382683,0.92388,0,0)">
                    <path d="M46,3L51,0L46,-3L46,3Z" style="fill:rgb(149,190,250);fill-rule:nonzero;stroke:rgb(149,190,250);stroke-width:2px;stroke-linejoin:round;"/>
                </g>
                <g id="cog3" serif:id="cog" transform="matrix(0.83147,0.55557,-0.55557,0.83147,0,0)">
                    <path d="M46,3L51,0L46,-3L46,3Z" style="fill:rgb(149,190,250);fill-rule:nonzero;stroke:rgb(149,190,250);stroke-width:2px;stroke-linejoin:round;"/>
                </g>
                <g id="cog4" serif:id="cog" transform="matrix(0.707107,0.707107,-0.707107,0.707107,0,0)">
                    <path d="M46,3L51,0L46,-3L46,3Z" style="fill:rgb(149,190,250);fill-rule:nonzero;stroke:rgb(149,190,250);stroke-width:2px;stroke-linejoin:round;"/>
                </g>
                <g id="cog5" serif:id="cog" transform="matrix(0.55557,0.83147,-0.83147,0.55557,0,0)">
                    <path d="M46,3L51,0L46,-3L46,3Z" style="fill:rgb(149,190,250);fill-rule:nonzero;stroke:rgb(149,190,250);stroke-width:2px;stroke-linejoin:round;"/>
                </g>
                <g id="cog6" serif:id="cog" transform="matrix(0.382683,0.92388,-0.92388,0.382683,0,0)">
                    <path d="M46,3L51,0L46,-3L46,3Z" style="fill:rgb(149,190,250);fill-rule:nonzero;stroke:rgb(149,190,250);stroke-width:2px;stroke-linejoin:round;"/>
                </g>
                <g id="cog7" serif:id="cog" transform="matrix(0.19509,0.980785,-0.980785,0.19509,0,0)">
                    <path d="M46,3L51,0L46,-3L46,3Z" style="fill:rgb(149,190,250);fill-rule:nonzero;stroke:rgb(149,190,250);stroke-width:2px;stroke-linejoin:round;"/>
                </g>
                <g id="cog8" serif:id="cog" transform="matrix(-3.82857e-16,1,-1,-3.82857e-16,0,0)">
                    <path d="M46,3L51,0L46,-3L46,3Z" style="fill:rgb(149,190,250);fill-rule:nonzero;stroke:rgb(149,190,250);stroke-width:2px;stroke-linejoin:round;"/>
                </g>
                <g id="cog9" serif:id="cog" transform="matrix(-0.19509,0.980785,-0.980785,-0.19509,0,0)">
                    <path d="M46,3L51,0L46,-3L46,3Z" style="fill:rgb(149,190,250);fill-rule:nonzero;stroke:rgb(149,190,250);stroke-width:2px;stroke-linejoin:round;"/>
                </g>
                <g id="cog10" serif:id="cog" transform="matrix(-0.382683,0.92388,-0.92388,-0.382683,0,0)">
                    <path d="M46,3L51,0L46,-3L46,3Z" style="fill:rgb(149,190,250);fill-rule:nonzero;stroke:rgb(149,190,250);stroke-width:2px;stroke-linejoin:round;"/>
                </g>
                <g id="cog11" serif:id="cog" transform="matrix(-0.55557,0.83147,-0.83147,-0.55557,0,0)">
                    <path d="M46,3L51,0L46,-3L46,3Z" style="fill:rgb(149,190,250);fill-rule:nonzero;stroke:rgb(149,190,250);stroke-width:2px;stroke-linejoin:round;"/>
                </g>
                <g id="cog12" serif:id="cog" transform="matrix(-0.707107,0.707107,-0.707107,-0.707107,0,0)">
                    <path d="M46,3L51,0L46,-3L46,3Z" style="fill:rgb(149,190,250);fill-rule:nonzero;stroke:rgb(149,190,250);stroke-width:2px;stroke-linejoin:round;"/>
                </g>
                <g id="cog13" serif:id="cog" transform="matrix(-0.83147,0.55557,-0.55557,-0.83147,0,0)">
                    <path d="M46,3L51,0L46,-3L46,3Z" style="fill:rgb(149,190,250);fill-rule:nonzero;stroke:rgb(149,190,250);stroke-width:2px;stroke-linejoin:round;"/>
                </g>
                <g id="cog14" serif:id="cog" transform="matrix(-0.92388,0.382683,-0.382683,-0.92388,0,0)">
                    <path d="M46,3L51,0L46,-3L46,3Z" style="fill:rgb(149,190,250);fill-rule:nonzero;stroke:rgb(149,190,250);stroke-width:2px;stroke-linejoin:round;"/>
                </g>
                <g id="cog15" serif:id="cog" transform="matrix(-0.980785,0.19509,-0.19509,-0.980785,0,0)">
                    <path d="M46,3L51,0L46,-3L46,3Z" style="fill:rgb(149,190,250);fill-rule:nonzero;stroke:rgb(149,190,250);stroke-width:2px;stroke-linejoin:round;"/>
                </g>
                <g id="cog16" serif:id="cog" transform="matrix(-1,-7.65714e-16,7.65714e-16,-1,0,0)">
                    <path d="M46,3L51,0L46,-3L46,3Z" style="fill:rgb(149,190,250);fill-rule:nonzero;stroke:rgb(149,190,250);stroke-width:2px;stroke-linejoin:round;"/>
                </g>
                <g id="cog17" serif:id="cog" transform="matrix(-0.980785,-0.19509,0.19509,-0.980785,0,0)">
                    <path d="M46,3L51,0L46,-3L46,3Z" style="fill:rgb(149,190,250);fill-rule:nonzero;stroke:rgb(149,190,250);stroke-width:2px;stroke-linejoin:round;"/>
                </g>
                <g id="cog18" serif:id="cog" transform="matrix(-0.92388,-0.382683,0.382683,-0.92388,0,0)">
                    <path d="M46,3L51,0L46,-3L46,3Z" style="fill:rgb(149,190,250);fill-rule:nonzero;stroke:rgb(149,190,250);stroke-width:2px;stroke-linejoin:round;"/>
                </g>
                <g id="cog19" serif:id="cog" transform="matrix(-0.83147,-0.55557,0.55557,-0.83147,0,0)">
                    <path d="M46,3L51,0L46,-3L46,3Z" style="fill:rgb(149,190,250);fill-rule:nonzero;stroke:rgb(149,190,250);stroke-width:2px;stroke-linejoin:round;"/>
                </g>
                <g id="cog20" serif:id="cog" transform="matrix(-0.707107,-0.707107,0.707107,-0.707107,0,0)">
                    <path d="M46,3L51,0L46,-3L46,3Z" style="fill:rgb(149,190,250);fill-rule:nonzero;stroke:rgb(149,190,250);stroke-width:2px;stroke-linejoin:round;"/>
                </g>
                <g id="cog21" serif:id="cog" transform="matrix(-0.55557,-0.83147,0.83147,-0.55557,0,0)">
                    <path d="M46,3L51,0L46,-3L46,3Z" style="fill:rgb(149,190,250);fill-rule:nonzero;stroke:rgb(149,190,250);stroke-width:2px;stroke-linejoin:round;"/>
                </g>
                <g id="cog22" serif:id="cog" transform="matrix(-0.382683,-0.92388,0.92388,-0.382683,0,0)">
                    <path d="M46,3L51,0L46,-3L46,3Z" style="fill:rgb(149,190,250);fill-rule:nonzero;stroke:rgb(149,190,250);stroke-width:2px;stroke-linejoin:round;"/>
                </g>
                <g id="cog23" serif:id="cog" transform="matrix(-0.19509,-0.980785,0.980785,-0.19509,0,0)">
                    <path d="M46,3L51,0L46,-3L46,3Z" style="fill:rgb(149,190,250);fill-rule:nonzero;stroke:rgb(149,190,250);stroke-width:2px;stroke-linejoin:round;"/>
                </g>
                <g id="cog24" serif:id="cog" transform="matrix(7.04481e-16,-1,1,7.04481e-16,0,0)">
                    <path d="M46,3L51,0L46,-3L46,3Z" style="fill:rgb(149,190,250);fill-rule:nonzero;stroke:rgb(149,190,250);stroke-width:2px;stroke-linejoin:round;"/>
                </g>
                <g id="cog25" serif:id="cog" transform="matrix(0.19509,-0.980785,0.980785,0.19509,0,0)">
                    <path d="M46,3L51,0L46,-3L46,3Z" style="fill:rgb(149,190,250);fill-rule:nonzero;stroke:rgb(149,190,250);stroke-width:2px;stroke-linejoin:round;"/>
                </g>
                <g id="cog26" serif:id="cog" transform="matrix(0.382683,-0.92388,0.92388,0.382683,0,0)">
                    <path d="M46,3L51,0L46,-3L46,3Z" style="fill:rgb(149,190,250);fill-rule:nonzero;stroke:rgb(149,190,250);stroke-width:2px;stroke-linejoin:round;"/>
                </g>
                <g id="cog27" serif:id="cog" transform="matrix(0.55557,-0.83147,0.83147,0.55557,0,0)">
                    <path d="M46,3L51,0L46,-3L46,3Z" style="fill:rgb(149,190,250);fill-rule:nonzero;stroke:rgb(149,190,250);stroke-width:2px;stroke-linejoin:round;"/>
                </g>
                <g id="cog28" serif:id="cog" transform="matrix(0.707107,-0.707107,0.707107,0.707107,0,0)">
                    <path d="M46,3L51,0L46,-3L46,3Z" style="fill:rgb(149,190,250);fill-rule:nonzero;stroke:rgb(149,190,250);stroke-width:2px;stroke-linejoin:round;"/>
                </g>
                <g id="cog29" serif:id="cog" transform="matrix(0.83147,-0.55557,0.55557,0.83147,0,0)">
                    <path d="M46,3L51,0L46,-3L46,3Z" style="fill:rgb(149,190,250);fill-rule:nonzero;stroke:rgb(149,190,250);stroke-width:2px;stroke-linejoin:round;"/>
                </g>
                <g id="cog30" serif:id="cog" transform="matrix(0.92388,-0.382683,0.382683,0.92388,0,0)">
                    <path d="M46,3L51,0L46,-3L46,3Z" style="fill:rgb(149,190,250);fill-rule:nonzero;stroke:rgb(149,190,250);stroke-width:2px;stroke-linejoin:round;"/>
                </g>
                <g id="cog31" serif:id="cog" transform="matrix(0.980785,-0.19509,0.19509,0.980785,0,0)">
                    <path d="M46,3L51,0L46,-3L46,3Z" style="fill:rgb(149,190,250);fill-rule:nonzero;stroke:rgb(149,190,250);stroke-width:2px;stroke-linejoin:round;"/>
                </g>
            </g>
            <g id="mounts">
                <path id="mount" d="M-7,-42L0,-35L7,-42L-7,-42Z" style="fill:rgb(149,190,250);fill-rule:nonzero;stroke:rgb(149,190,250);stroke-width:4px;stroke-linejoin:round;"/>
                <g id="mount1" serif:id="mount" transform="matrix(0.309017,0.951057,-0.951057,0.309017,0,0)">
                    <path d="M-7,-42L0,-35L7,-42L-7,-42Z" style="fill:rgb(149,190,250);fill-rule:nonzero;stroke:rgb(149,190,250);stroke-width:4px;stroke-linejoin:round;"/>
                </g>
                <g id="mount2" serif:id="mount" transform="matrix(-0.809017,0.587785,-0.587785,-0.809017,0,0)">
                    <path d="M-7,-42L0,-35L7,-42L-7,-42Z" style="fill:rgb(149,190,250);fill-rule:nonzero;stroke:rgb(149,190,250);stroke-width:4px;stroke-linejoin:round;"/>
                </g>
                <g id="mount3" serif:id="mount" transform="matrix(-0.809017,-0.587785,0.587785,-0.809017,0,0)">
                    <path d="M-7,-42L0,-35L7,-42L-7,-42Z" style="fill:rgb(149,190,250);fill-rule:nonzero;stroke:rgb(149,190,250);stroke-width:4px;stroke-linejoin:round;"/>
                </g>
                <g id="mount4" serif:id="mount" transform="matrix(0.309017,-0.951057,0.951057,0.309017,0,0)">
                    <path d="M-7,-42L0,-35L7,-42L-7,-42Z" style="fill:rgb(149,190,250);fill-rule:nonzero;stroke:rgb(149,190,250);stroke-width:4px;stroke-linejoin:round;"/>
                </g>
            </g>
        </g>
        <g id="mount-holes" serif:id="mount holes" transform="matrix(1.10964,0,0,1.10964,-43.5583,-40.4966)">
            <g transform="matrix(0.633035,0,0,0.633505,344.191,59.3846)">
                <circle cx="83.855" cy="224.803" r="17.148" style="fill:rgb(40,94,170);"/>
            </g>
            <g transform="matrix(0.195618,-0.602052,0.602499,0.195764,86.0761,324.051)">
                <circle cx="83.855" cy="224.803" r="17.148" style="fill:rgb(40,94,170);"/>
            </g>
            <g transform="matrix(-0.512136,-0.372088,0.372365,-0.512516,258.027,651.32)">
                <circle cx="83.855" cy="224.803" r="17.148" style="fill:rgb(40,94,170);"/>
            </g>
            <g transform="matrix(0.195618,0.602052,-0.602499,0.195764,675.666,223.08)">
                <circle cx="83.855" cy="224.803" r="17.148" style="fill:rgb(40,94,170);"/>
            </g>
            <g transform="matrix(-0.512136,0.372088,-0.372365,-0.512516,622.413,588.916)">
                <circle cx="83.855" cy="224.803" r="17.148" style="fill:rgb(40,94,170);"/>
            </g>
        </g>
    </g>
</svg>
